<?xml version="1.0" standalone="no"?>
<!DOCTYPE svg PUBLIC "-//W3C//DTD SVG 20010904//EN"
 "http://www.w3.org/TR/2001/REC-SVG-20010904/DTD/svg10.dtd">
<svg version="1.0" xmlns="http://www.w3.org/2000/svg"
 width="600.000000pt" height="600.000000pt" viewBox="0 0 600.000000 600.000000"
 preserveAspectRatio="xMidYMid meet">
<metadata>
Created by potrace 1.11, written by Peter Selinger 2001-2013
</metadata>
<g transform="translate(0.000000,600.000000) scale(0.100000,-0.100000)"
fill="#000000" stroke="none">
<path d="M0 3000 l0 -3000 3000 0 3000 0 0 3000 0 3000 -3000 0 -3000 0 0
-3000z m2340 565 l0 -475 -60 0 -60 0 0 60 0 60 -42 -47 c-24 -25 -61 -54 -83
-64 -47 -22 -148 -25 -207 -7 -56 17 -131 87 -159 150 -21 47 -24 68 -24 178
0 147 15 199 79 268 58 63 103 82 201 82 98 0 146 -20 198 -80 l37 -44 0 197
0 197 60 0 60 0 0 -475z m1050 273 c0 -202 0 -203 19 -173 45 73 108 105 208
105 93 0 138 -15 189 -62 135 -124 147 -402 23 -543 -103 -117 -322 -114 -408
6 l-31 42 0 -61 0 -62 -60 0 -60 0 0 475 0 475 60 0 60 0 0 -202z m860 32 l0
-110 80 0 80 0 0 -50 0 -50 -80 0 -80 0 0 -197 c0 -251 3 -271 45 -288 18 -8
48 -11 74 -8 l42 6 -3 -44 -3 -44 -87 -3 c-109 -3 -152 12 -173 62 -12 28 -15
87 -15 276 l0 240 -65 0 -65 0 0 50 0 50 65 0 65 0 0 110 0 110 60 0 60 0 0
-110z m-1278 -133 c91 -53 134 -132 145 -264 l6 -73 -252 0 -251 0 0 -30 c0
-39 24 -98 53 -128 82 -88 225 -79 292 18 27 39 29 40 86 40 34 0 59 -4 59
-10 0 -25 -45 -96 -86 -135 -54 -53 -115 -75 -208 -75 -86 0 -130 12 -184 48
-172 115 -190 423 -33 570 14 14 49 36 76 49 44 21 61 24 150 21 88 -3 106 -7
147 -31z m1391 -1704 c15 -18 20 -40 18 -75 -4 -58 -102 -80 -140 -32 -12 15
-21 37 -21 49 0 12 9 34 21 49 16 21 29 26 63 26 28 0 48 -6 59 -17z"/>
<path d="M1950 3663 c-76 -29 -124 -119 -124 -233 -1 -89 15 -139 57 -187 76
-86 203 -85 274 2 95 115 68 334 -51 406 -30 18 -120 25 -156 12z"/>
<path d="M3495 3646 c-77 -46 -115 -162 -94 -284 31 -178 215 -245 326 -119
82 94 76 289 -12 380 -35 36 -64 47 -128 47 -37 0 -64 -7 -92 -24z"/>
<path d="M2785 3675 c-5 -2 -22 -6 -37 -9 -58 -13 -127 -102 -128 -163 l0 -23
190 0 190 0 -6 28 c-22 101 -59 145 -135 161 -51 11 -57 12 -74 6z"/>
</g>
</svg>
